<svg width="143" height="46" viewBox="0 0 143 46" fill="none" xmlns="http://www.w3.org/2000/svg">
<path d="M136.784 35V28.088H142.064V35H136.784Z" fill="#25D022"/>
<path d="M0.552002 35V0.919983H7.176V35H0.552002Z" fill="#F7F7F7"/>
<path d="M23.1274 35.144C21.4634 35.144 19.9274 34.824 18.5194 34.184C17.1434 33.512 15.9434 32.584 14.9194 31.4C13.9274 30.216 13.1594 28.856 12.6154 27.32C12.0714 25.784 11.7994 24.152 11.7994 22.424C11.7994 20.6 12.0874 18.904 12.6634 17.336C13.2394 15.768 14.0394 14.392 15.0634 13.208C16.1194 11.992 17.3514 11.064 18.7594 10.424C20.1994 9.75198 21.7834 9.41598 23.5114 9.41598C25.4634 9.41598 27.1754 9.86398 28.6474 10.76C30.1194 11.624 31.3354 12.792 32.2954 14.264V9.84798H37.9114V33.8C37.9114 36.296 37.3034 38.424 36.0874 40.184C34.9034 41.976 33.2554 43.336 31.1434 44.264C29.0314 45.224 26.6314 45.704 23.9434 45.704C21.2234 45.704 18.9194 45.24 17.0314 44.312C15.1434 43.416 13.5274 42.136 12.1834 40.472L15.6874 37.064C16.6474 38.248 17.8474 39.176 19.2874 39.848C20.7594 40.52 22.3114 40.856 23.9434 40.856C25.3194 40.856 26.5674 40.6 27.6874 40.088C28.8394 39.608 29.7514 38.84 30.4234 37.784C31.1274 36.76 31.4794 35.432 31.4794 33.8V30.632C30.6474 32.072 29.4634 33.192 27.9274 33.992C26.4234 34.76 24.8234 35.144 23.1274 35.144ZM25.2874 30.008C25.9914 30.008 26.6634 29.896 27.3034 29.672C27.9434 29.448 28.5354 29.144 29.0794 28.76C29.6234 28.376 30.1034 27.928 30.5194 27.416C30.9354 26.872 31.2554 26.328 31.4794 25.784V19.784C31.0954 18.792 30.5514 17.928 29.8474 17.192C29.1754 16.456 28.4074 15.896 27.5434 15.512C26.7114 15.096 25.8314 14.888 24.9034 14.888C23.9114 14.888 23.0154 15.096 22.2154 15.512C21.4154 15.928 20.7274 16.52 20.1514 17.288C19.5754 18.024 19.1274 18.856 18.8074 19.784C18.5194 20.68 18.3754 21.624 18.3754 22.616C18.3754 23.64 18.5514 24.6 18.9034 25.496C19.2554 26.392 19.7354 27.176 20.3434 27.848C20.9834 28.52 21.7194 29.048 22.5514 29.432C23.4154 29.816 24.3274 30.008 25.2874 30.008Z" fill="#F7F7F7"/>
<path d="M55.3253 35.48C53.2773 35.48 51.4373 35.144 49.8053 34.472C48.1733 33.768 46.7813 32.808 45.6293 31.592C44.5093 30.376 43.6453 28.984 43.0373 27.416C42.4292 25.848 42.1253 24.2 42.1253 22.472C42.1253 20.712 42.4292 19.048 43.0373 17.48C43.6453 15.912 44.5093 14.52 45.6293 13.304C46.7813 12.088 48.1733 11.144 49.8053 10.472C51.4373 9.76798 53.2773 9.41598 55.3253 9.41598C57.3733 9.41598 59.1973 9.76798 60.7973 10.472C62.4293 11.144 63.8213 12.088 64.9733 13.304C66.1253 14.52 66.9893 15.912 67.5653 17.48C68.1733 19.048 68.4772 20.712 68.4772 22.472C68.4772 24.2 68.1733 25.848 67.5653 27.416C66.9893 28.984 66.1253 30.376 64.9733 31.592C63.8533 32.808 62.4773 33.768 60.8453 34.472C59.2133 35.144 57.3733 35.48 55.3253 35.48ZM48.7493 22.472C48.7493 23.944 49.0373 25.256 49.6133 26.408C50.1893 27.528 50.9733 28.408 51.9653 29.048C52.9573 29.688 54.0773 30.008 55.3253 30.008C56.5413 30.008 57.6453 29.688 58.6373 29.048C59.6293 28.376 60.4133 27.48 60.9893 26.36C61.5973 25.208 61.9013 23.896 61.9013 22.424C61.9013 20.984 61.5973 19.688 60.9893 18.536C60.4133 17.384 59.6293 16.488 58.6373 15.848C57.6453 15.208 56.5413 14.888 55.3253 14.888C54.0773 14.888 52.9573 15.224 51.9653 15.896C50.9733 16.536 50.1893 17.432 49.6133 18.584C49.0373 19.704 48.7493 21 48.7493 22.472Z" fill="#F7F7F7"/>
<path d="M87.7946 15.416C85.8426 15.416 84.0986 15.8 82.5626 16.568C81.0266 17.304 79.9226 18.376 79.2506 19.784V35H72.8186V9.84798H78.7226V15.224C79.6186 13.496 80.7546 12.136 82.1306 11.144C83.5066 10.152 84.9626 9.60798 86.4986 9.51198C86.8506 9.51198 87.1226 9.51198 87.3146 9.51198C87.5066 9.51198 87.6666 9.52798 87.7946 9.55998V15.416Z" fill="#F7F7F7"/>
<path d="M102.458 35V0.919983H114.842C118.554 0.919983 121.658 1.68798 124.154 3.22398C126.65 4.72798 128.522 6.77598 129.77 9.36798C131.018 11.928 131.642 14.776 131.642 17.912C131.642 21.368 130.954 24.376 129.578 26.936C128.202 29.496 126.25 31.48 123.722 32.888C121.226 34.296 118.266 35 114.842 35H102.458ZM124.97 17.912C124.97 15.704 124.57 13.768 123.77 12.104C122.97 10.408 121.818 9.09598 120.314 8.16798C118.81 7.20798 116.986 6.72798 114.842 6.72798H109.082V29.192H114.842C117.018 29.192 118.858 28.712 120.362 27.752C121.866 26.76 123.002 25.416 123.77 23.72C124.57 21.992 124.97 20.056 124.97 17.912Z" fill="#F7F7F7"/>
</svg>
